<svg id="Layer_1" data-name="Layer 1" xmlns="http://www.w3.org/2000/svg" viewBox="0 0 368.53 368.53"><defs><style>.cls-1{fill:#fff;}</style></defs><title>pr_logo</title><path id="SVGID" class="cls-1" d="M351.63,129.46l12.66,36.19a98,98,0,0,1-2.07,70.13c-5.53,6.4-12.23,16.7-24.07,16.7-17.19,0-39.41-29.89-56.87-60.31C323.81,184,348.79,158.23,351.63,129.46Zm-109,65.09c-1.32,0-2.64-.26-4.23-0.26,0,2.12-.27,4.5-0.27,6.61-2.12,29.62-2.64,73-2.64,77,0,12.7-17.72,21.43-36.5,21.43-9.52,0-11.64-2.12-11.64-15.08,0-17.19,3.7-35.44,6.61-89.4,2.64-50,1.85-71.94,2.64-84.38-3.57,1.64-9.36,4.08-14.26,5.91a53.8,53.8,0,0,1,.55,7.58c0,37-36.24,70.62-99.45,70.62-4.76,0-9.26,0-14-.26,0,2.12-.26,4.5-0.26,6.61-1.48,20.67-4.93,81.81-6.89,118.21L84.6,341.4a98,98,0,0,0,80.3,28.1l76.76-8.65a98,98,0,0,0,72-45.26l11.75-18.7-0.49,0C292.4,296.92,254,233.7,242.67,194.55Zm64.27-63.22c0-12.7-7.41-35.71-48.67-35.71-4,0-7.67.26-11.64,0.53l-6.88,80.94h0.53C280.49,177.1,306.94,155.14,306.94,131.34ZM177.52,101c18.1-14.3,59.77-31.85,99.27-31.85,26.8,0,47.62,7.2,60.48,19.61a98,98,0,0,0-58.64-56.19L205.72,7.08a98,98,0,0,0-84.53,9.52L55.79,57.7A98,98,0,0,0,22.28,93c18.14-11.92,50.84-23.87,85.53-23.87S167.18,81.22,177.52,101ZM89.3,95.63c-4,0-7.67.27-11.64,0.53L70.79,177.1h0.53c40.2,0,66.65-22,66.65-45.76C138,118.64,130.56,95.63,89.3,95.63ZM27.67,110.44c-6.35,2.91-11.37,4.76-14.28,4.76H13.32a98,98,0,0,0-2.8,14.54L1.88,206.49A98,98,0,0,0,19,273.76C21.39,246.69,26.88,122.87,27.67,110.44Z" transform="translate(-1.26 -1.58)"/></svg>