<?xml version="1.0" encoding="utf-8"?>
<!-- Generator: Adobe Illustrator 19.2.1, SVG Export Plug-In . SVG Version: 6.00 Build 0)  -->
<svg version="1.1" id="Layer_1" xmlns="http://www.w3.org/2000/svg" xmlns:xlink="http://www.w3.org/1999/xlink" x="0px" y="0px"
	 viewBox="0 0 371.3 371.3" style="enable-background:new 0 0 371.3 371.3;" xml:space="preserve">
<style type="text/css">
	.st0{fill:#FFFFFF;}
</style>
<title>pr_logo</title>
<path class="st0" d="M351.8,129.3l12.7,36.2c6.6,18.8,7.2,38.8,2.2,57.6c-2.2,8.4-6.5,16.2-12.8,22.2c-4.1,3.9-9,7-15.5,7
	c-17.2,0-39.4-29.9-56.9-60.3C323.9,183.8,348.9,158.1,351.8,129.3z M242.8,194.4c-1.3,0-2.6-0.3-4.2-0.3c0,2.1-0.3,4.5-0.3,6.6
	c-2.1,29.6-2.6,73-2.6,77c0,12.7-17.7,21.4-36.5,21.4c-9.5,0-11.6-2.1-11.6-15.1c0-17.2,3.7-35.4,6.6-89.4c2.6-50,1.9-71.9,2.6-84.4
	c-3.6,1.6-9.4,4.1-14.3,5.9c0.3,2.5,0.5,5,0.5,7.6c0,37-36.2,70.6-99.5,70.6c-4.8,0-9.3,0-14-0.3c0,2.1-0.3,4.5-0.3,6.6
	c-1.5,20.7-4.9,81.8-6.9,118.2l22.3,22.3c21.1,21.1,50.6,31.4,80.3,28.1l76.8-8.6c29.6-3.3,56.2-20,72-45.3l11.7-18.7
	c-0.2,0-0.3,0-0.5,0C292.5,296.7,254.2,233.5,242.8,194.4z M307.1,131.2c0-12.7-7.4-35.7-48.7-35.7c-4,0-7.7,0.3-11.6,0.5l-6.9,80.9
	h0.5C280.6,176.9,307.1,155,307.1,131.2z M177.7,100.8C195.8,86.5,237.4,69,276.9,69c26.8,0,47.6,7.2,60.5,19.6
	c-10.5-26.3-31.8-46.8-58.6-56.2L205.9,6.9c-28.2-9.9-59.3-6.3-84.5,9.5L55.9,57.5c-14.1,8.9-25.6,21.1-33.5,35.3
	C40.6,81,73.3,69,108,69C142.6,69,167.3,81,177.7,100.8z M89.4,95.5c-4,0-7.7,0.3-11.6,0.5l-6.9,80.9h0.5c40.2,0,66.7-22,66.7-45.8
	C138.1,118.5,130.7,95.5,89.4,95.5z M27.8,110.3c-6.3,2.9-11.4,4.8-14.3,4.8c0,0,0,0-0.1,0c-1.3,4.7-2.2,9.6-2.8,14.5L2,206.3
	c-2.7,24,3.5,47.9,17.2,67.3C21.5,246.5,27,122.7,27.8,110.3z"/>
</svg>
