<?xml version="1.0" encoding="utf-8"?>
<!-- Generator: Adobe Illustrator 19.2.1, SVG Export Plug-In . SVG Version: 6.00 Build 0)  -->
<svg version="1.1" id="Layer_1" xmlns="http://www.w3.org/2000/svg" xmlns:xlink="http://www.w3.org/1999/xlink" x="0px" y="0px"
	 viewBox="0 0 288 288" style="enable-background:new 0 0 288 288;" xml:space="preserve">
<style type="text/css">
	.st0{fill:#FFFFFF;}
</style>
<title>spbgut</title>
<path class="st0" d="M271,178.7c8-9,13.4-23.2,13.4-34.2c0-7.5-2.2-21-13.4-35.3l-1.4,0.7c6.6,11.3,7.6,21.1,7.6,34.6
	c0,2.7,0.1,22.6-7.5,33.4L271,178.7L271,178.7z"/>
<path class="st0" d="M253,173.3c6.7-7.6,11.3-19.6,11.3-28.9c0-6.3-1.9-17.7-11.3-29.8l-1.2,0.6c5.6,9.6,6.4,17.9,6.4,29.2
	c0,2.3,0.1,19-6.3,28.1L253,173.3L253,173.3L253,173.3z"/>
<path class="st0" d="M237.2,167.9c5.5-6.2,9.2-16,9.2-23.5c0-5.1-1.5-14.4-9.2-24.2l-1,0.5c4.5,7.8,5.2,14.5,5.2,23.8
	c0,1.9,0.1,15.5-5.1,22.9L237.2,167.9L237.2,167.9L237.2,167.9z"/>
<path class="st0" d="M209.2,163.5h-4.5v1.3h15.5v-1.3h-4.5v-39c7.7,0,11.3,2.3,12.3,11.9h1.6l-0.3-13.1h-33.8l-0.3,13.1h1.6
	c0.9-9.4,4.6-12,12.3-11.8L209.2,163.5L209.2,163.5L209.2,163.5z"/>
<path class="st0" d="M179,150.8l-11.5-26.4h4.9v-1.2h-16v1.2h4l14.9,34.4c-1.3,2.5-2.7,5.4-5.4,5.4s-4-1.3-4-2.4
	c0-0.8,1.5-1.6,2.2-2.5c0.7-0.7,1.1-1.7,1.1-2.7c0-2-1.7-3.6-3.7-3.6c0,0-0.1,0-0.1,0c-2.5,0-3.9,2.3-3.9,5c0,4.1,3.6,7.4,8,7.4
	c2.4,0,6.4-1.7,10.6-13.7l8.2-23.1c0.4-1.1,1.7-4.2,5.2-4.2v-1.2h-9.9v1.2h0.8c1.3-0.1,2.5,0.9,2.6,2.3c0,0.1,0,0.3,0,0.4
	c-0.1,1.3-0.4,2.6-0.8,3.8L179,150.8L179,150.8z"/>
<path class="st0" d="M137.1,124.5h7.8c5.9,0,7.8,6.2,8.3,10.8h1.4l-0.7-12H126v1.3h4.5v39H126v1.3h15.5v-1.3H137L137.1,124.5
	L137.1,124.5L137.1,124.5z"/>
<path class="st0" d="M112.9,117.8c-0.4,3.5-4.1,3.4-8.1,4.5c-8.8,2.4-16.5,5.8-16.5,22.9c0,17.5,9.7,19.4,13.4,19.4
	c5.8,0,13.6-5.3,13.6-14.3c0.2-7.7-5.8-14.1-13.5-14.4c0,0-0.1,0-0.1,0c-3.2,0-8.3,1.5-11.6,8.6h-0.6c-0.2-12.1,7.3-13.7,15-16
	c4.4-1.3,9.3-2.9,9.3-10.9L112.9,117.8L112.9,117.8z M95.4,145.8c0-6.7,4.2-8.6,6.4-8.6s6.5,1.9,6.5,8.6v9.3c0,1.4-0.4,8.5-6.5,8.5
	c-4.9,0-6.4-5.2-6.4-8.5V145.8L95.4,145.8z"/>
<polygon class="st0" points="53.1,123.3 71.5,123.3 71.5,162.7 67.2,162.7 67.2,164 83.4,164 83.4,162.7 78.6,162.7 78.6,123.3 
	83.4,123.3 83.4,122.1 41.3,122.1 41.3,123.3 46.1,123.3 46.1,162.7 41.3,162.7 41.3,164 57.5,164 57.5,162.7 53.1,162.7 
	53.1,123.3 "/>
<path class="st0" d="M32.8,121.4c-0.6,2-1.8,2-2.5,2c-6.6,0-2.7-2-8.3-2c-9.9,0-18.4,8.5-18.4,20.3c0,12.8,6.4,23,17.1,23
	c2.5-0.1,5-0.7,7.3-1.8c1.2-0.7,2.2-1.4,3.3-1.4c1.7,0,1.9,2,2,2.6H35l0.5-14h-1.5c-1.9,10.2-7,13.4-11.7,13.4
	c-4.4,0-10.8-2.9-10.8-14.2v-10.3c0-13.7,6.8-16.3,10.9-16.3c7.3,0,9.9,4.9,10.7,12.4h1.2v-13.6H32.8L32.8,121.4z"/>
</svg>
