<?xml version="1.0" encoding="utf-8"?>
<!-- Generator: Adobe Illustrator 19.2.1, SVG Export Plug-In . SVG Version: 6.00 Build 0)  -->
<svg version="1.1" id="VICIS_Logo" xmlns="http://www.w3.org/2000/svg" xmlns:xlink="http://www.w3.org/1999/xlink" x="0px" y="0px"
	 viewBox="0 0 283.5 283.5" style="enable-background:new 0 0 283.5 283.5;" xml:space="preserve">
<style type="text/css">
	.st0{fill:#FFFFFF;}
</style>
<path id="_Compound_Path_" class="st0" d="M279.1,113.5c-3.7-18-10.9-35-21.1-50.2c-31.8-47.1-88.9-70.4-144.6-59
	c-18,3.7-35,10.9-50.2,21.1C16.1,57.2-7.2,114.3,4.2,170c3.7,18,10.9,35,21.1,50.2c31.8,47.1,88.9,70.4,144.6,59
	c18-3.7,35-10.9,50.2-21.1c14.9-10.1,27.8-22.9,37.9-37.9c3-4.4,5.7-9,8.2-13.8c0-0.1,0.1-0.2,0.1-0.2c1.7-3.2,3.2-6.5,4.6-9.8
	C282,170.2,284.8,141.3,279.1,113.5z M92.4,138.5c0.9-4.1,2.7-8.2,5.4-12.4c2-3.2,4.5-6.3,7.5-9.5c3.3,2.6,6.6,5.3,10,8
	c-2.4,1.5-4.4,3.4-5.7,5.8c-6.7,11.5,2.3,29.2,20.1,39.4c15.3,8.8,32.1,9.3,40.7,1.9c5.9,4.9,11.6,9.6,17.3,14
	c-5.2,0.9-10.5,1.5-15.8,1.8c-2.7,0.2-5.3,0.2-7.9,0.2c-9.4,0-18.4-1-26.9-3c-5.1-1.2-9.9-2.8-14.3-4.6c-4.3-1.8-8.3-3.9-11.8-6.2
	c-3.4-2.2-6.4-4.7-9-7.2c-2.4-2.5-4.5-5.1-6-7.7c-1.9-3.2-3.1-6.6-3.7-9.9C91.5,145.6,91.6,142.1,92.4,138.5z M99.8,42.5
	c13.3-5.6,27.4-8.5,41.9-8.5s28.6,2.8,41.9,8.5c6.4,2.7,12.5,6,18.3,9.9c5.7,3.9,11.1,8.3,15.9,13.2c9.8,9.8,17.7,21.4,23.1,34.2
	c5.6,13.3,8.5,27.4,8.5,41.9c0,13.6-3.5,54.8-81.5-15.1C146,107.5,123.3,87.8,101.8,74c-10.6-6.9-20.2-11.8-29.1-15
	c2.8-2.3,5.7-4.6,8.8-6.6C87.3,48.5,93.4,45.2,99.8,42.5L99.8,42.5z M217.8,217.9c-9.8,9.8-21.4,17.7-34.2,23.1
	c-13.3,5.6-27.4,8.5-41.9,8.5s-28.6-2.8-41.9-8.5c-6.4-2.7-12.5-6-18.3-9.9c-5.7-3.9-11.1-8.3-15.9-13.2
	c-9.8-9.8-17.7-21.4-23.1-34.2c-4.6-10.8-6.9-22.2-7.9-33.9c-0.6-7.1-0.5-14.3,0.5-21.3C40.5,88,67,89.7,78.3,97.8
	c-3,3.5-5.7,7.1-8,10.7c-4.7,7.4-8,15-9.7,22.7c-3.5,15.3-1,30.6,7,44.3c2.9,5,6.6,9.8,11,14.2c4.2,4.2,9,8.1,14.3,11.6
	c5.2,3.4,11,6.4,17.1,9c6.1,2.5,12.6,4.6,19.4,6.3c11,2.6,22.5,3.9,34.5,3.9c3.2,0,6.5-0.1,9.8-0.3c16.3-1,32.9-4.3,49.4-9.9
	c0.7-0.2,2.2-0.6,2.2-0.6l0,0C222.9,212.5,220.4,215.2,217.8,217.9z"/>
</svg>
